<?xml version="1.0" encoding="UTF-8" standalone="yes"?>
<svg xmlns="http://www.w3.org/2000/svg" xmlns:xlink="http://www.w3.org/1999/xlink" width="29.700cm" height="21.000cm" version="1.1" viewBox="-771.732 222.331 1543.465 1091.338">
  <!--
	Exported with Concepts: Smarter Sketching
	Version: 2024.09.2 on Android 12
	https://concepts.app/
	-->
  <title>Drawing</title>
  <desc>Drawing exported from Concepts: Smarter Sketching</desc>
  <defs></defs>
  <g id="Pen" opacity="1.000">
    <circle id="STROKE_6378d453-e151-420a-a4e4-a33fd08bd104" opacity="1.000" fill="#000000" stroke="#000000" stroke-width="0.1" stroke-opacity="1.000" fill-opacity="1.000" cx="191.269" cy="961.523" r="0.800"></circle>
    <path id="STROKE_febd006f-2453-4010-a823-75469f2b845d" opacity="1.000" fill="none" stroke="#000000" stroke-width="4.815" stroke-opacity="1.000" stroke-linecap="round" stroke-linejoin="round" d="M -434.024 609.815 Q -432.480 606.720 -431.709 605.121 Q -430.938 603.521 -427.183 597.127 Q -423.429 590.733 -414.004 575.905 Q -404.579 561.077 -391.371 543.936 Q -378.163 526.796 -368.404 516.468 Q -358.646 506.141 -346.558 495.396 Q -334.470 484.650 -324.544 477.055 Q -314.618 469.460 -306.541 464.081 Q -298.464 458.702 -292.036 454.695 Q -285.608 450.687 -268.663 439.528 "></path>
    <path id="STROKE_dc007834-21fb-4825-8bc8-60c422c557c3" opacity="1.000" fill="none" stroke="#000000" stroke-width="4.815" stroke-opacity="1.000" stroke-linecap="round" stroke-linejoin="round" d="M -290.629 370.631 Q -289.472 373.345 -286.915 380.888 Q -284.358 388.430 -281.013 397.890 Q -277.667 407.350 -275.757 412.399 Q -273.848 417.447 -269.812 428.845 "></path>
    <path id="STROKE_1a3bee50-ad38-4407-b74f-9cc2272d762a" opacity="1.000" fill="none" stroke="#000000" stroke-width="4.815" stroke-opacity="1.000" stroke-linecap="round" stroke-linejoin="round" d="M -293.127 357.909 Q -290.080 360.480 -282.773 367.783 Q -275.465 375.087 -270.729 379.902 Q -265.992 384.717 -262.238 388.408 Q -258.484 392.099 -248.342 401.961 Q -238.200 411.823 -225.974 423.458 L -215.753 433.102 "></path>
    <path id="STROKE_c929bd12-8ccd-495c-a711-781446d37214" opacity="1.000" fill="none" stroke="#000000" stroke-width="4.815" stroke-opacity="1.000" stroke-linecap="round" stroke-linejoin="round" d="M -197.386 416.215 Q -195.468 416.000 -184.531 414.157 Q -173.593 412.314 -166.937 411.471 Q -160.281 410.628 -146.141 409.450 Q -132.002 408.272 -114.136 408.155 Q -96.270 408.037 -87.150 408.523 Q -78.029 409.010 -70.072 409.508 Q -62.116 410.006 -44.010 411.454 L -32.948 413.060 "></path>
    <path id="STROKE_c6c5b433-31f6-4994-b52e-81f2370e64dc" opacity="1.000" fill="none" stroke="#000000" stroke-width="4.815" stroke-opacity="1.000" stroke-linecap="round" stroke-linejoin="round" d="M 3.846 361.827 Q -7.510 376.764 -13.517 384.463 Q -19.524 392.162 -36.881 415.227 L -40.600 419.983 "></path>
    <path id="STROKE_a5c30557-8ac2-408f-b299-cf16eca1288f" opacity="1.000" fill="none" stroke="#000000" stroke-width="4.815" stroke-opacity="1.000" stroke-linecap="round" stroke-linejoin="round" d="M 2.864 351.823 L 2.207 356.307 Q 2.035 357.205 0.275 365.142 Q -1.486 373.078 -3.772 382.950 Q -6.058 392.822 -8.529 401.183 Q -11.000 409.545 -13.798 419.607 Q -14.245 420.627 -22.341 433.777 "></path>
    <path id="STROKE_56bcdfb7-19ac-424a-837f-93ed2fdf6856" opacity="1.000" fill="none" stroke="#000000" stroke-width="4.815" stroke-opacity="1.000" stroke-linecap="round" stroke-linejoin="round" d="M -17.727 423.284 Q -2.586 430.979 6.782 436.138 Q 16.150 441.298 28.250 449.034 Q 40.350 456.771 52.893 465.931 Q 65.436 475.091 78.527 486.464 Q 91.617 497.836 99.439 505.257 Q 107.260 512.678 123.441 530.736 "></path>
    <path id="STROKE_392113d5-ac6b-4c2f-a869-e78bb40397ba" opacity="1.000" fill="none" stroke="#000000" stroke-width="4.815" stroke-opacity="1.000" stroke-linecap="round" stroke-linejoin="round" d="M 116.698 520.203 Q 121.226 519.388 139.380 516.079 Q 157.535 512.771 172.956 509.842 Q 188.377 506.914 194.045 506.065 "></path>
    <path id="STROKE_56a58ea8-d9e5-4263-b758-f6ac3c03f57a" opacity="1.000" fill="none" stroke="#000000" stroke-width="4.815" stroke-opacity="1.000" stroke-linecap="round" stroke-linejoin="round" d="M 188.448 506.892 Q 185.328 511.233 176.008 524.980 Q 166.689 538.727 159.129 549.852 Q 151.569 560.976 146.531 569.125 "></path>
    <path id="STROKE_08dcd0c9-68f9-4737-9857-9c3088d3eb15" opacity="1.000" fill="none" stroke="#000000" stroke-width="4.815" stroke-opacity="1.000" stroke-linecap="round" stroke-linejoin="round" d="M -175.332 508.165 Q -171.758 501.786 -163.790 486.174 Q -155.821 470.561 -142.871 443.791 L -139.830 438.622 "></path>
    <path id="STROKE_f51c3643-6b39-47a9-b298-721e0d1cffa5" opacity="1.000" fill="none" stroke="#000000" stroke-width="4.815" stroke-opacity="1.000" stroke-linecap="round" stroke-linejoin="round" d="M -140.510 439.128 Q -138.925 445.657 -135.992 457.716 Q -133.059 469.775 -131.475 476.738 Q -129.890 483.701 -129.151 485.988 Q -128.411 488.274 -124.633 504.105 "></path>
    <path id="STROKE_0150be3e-63d7-4c1a-bb8b-43446bae0693" opacity="1.000" fill="none" stroke="#000000" stroke-width="4.815" stroke-opacity="1.000" stroke-linecap="round" stroke-linejoin="round" d="M -150.423 413.837 Q -146.582 407.869 -146.429 407.782 Q -146.275 407.694 -138.194 395.621 Q -130.113 383.548 -125.804 377.173 Q -121.495 370.798 -120.671 369.089 Q -119.847 367.380 -116.512 362.933 "></path>
    <path id="STROKE_93b99354-a1e8-4977-98ea-46ee95cd126a" opacity="1.000" fill="none" stroke="#000000" stroke-width="4.815" stroke-opacity="1.000" stroke-linecap="round" stroke-linejoin="round" d="M -113.958 359.552 Q -112.136 364.710 -102.817 395.890 L -100.882 401.635 "></path>
    <path id="STROKE_3b9f2d47-e653-4732-be76-4a345b6ab822" opacity="1.000" fill="none" stroke="#000000" stroke-width="4.815" stroke-opacity="1.000" stroke-linecap="round" stroke-linejoin="round" d="M 55.031 461.168 Q 74.693 454.195 83.035 451.434 "></path>
    <path id="STROKE_2ac34b5d-36f7-4ee2-a322-4ff391be32f5" opacity="1.000" fill="none" stroke="#000000" stroke-width="4.815" stroke-opacity="1.000" stroke-linecap="round" stroke-linejoin="round" d="M 81.162 453.801 Q 79.196 459.527 72.935 479.707 "></path>
    <path id="STROKE_e473a3f5-a65c-40b8-9a29-d0f2d2cb50a4" opacity="1.000" fill="none" stroke="#000000" stroke-width="4.815" stroke-opacity="1.000" stroke-linecap="round" stroke-linejoin="round" d="M -405.633 634.832 Q -410.367 635.953 -410.753 636.017 Q -411.139 636.082 -413.823 636.911 Q -416.508 637.741 -419.118 638.876 Q -421.728 640.011 -424.599 642.104 Q -427.470 644.197 -430.064 646.668 Q -432.658 649.139 -435.130 652.084 Q -437.603 655.030 -438.628 656.831 Q -439.653 658.632 -440.859 661.496 Q -442.065 664.360 -442.722 667.687 Q -443.378 671.014 -443.454 675.293 Q -443.531 679.572 -443.277 682.960 Q -443.023 686.348 -441.791 691.049 Q -440.558 695.751 -440.379 696.340 Q -440.200 696.930 -435.972 703.124 Q -431.744 709.318 -422.980 716.954 Q -418.913 718.965 -415.831 720.051 Q -412.748 721.137 -412.444 721.192 Q -412.140 721.248 -408.006 722.064 Q -403.871 722.880 -398.734 723.262 Q -393.597 723.644 -390.120 723.322 Q -386.643 722.999 -383.709 722.182 Q -380.775 721.366 -378.089 720.639 Q -375.402 719.912 -372.649 719.082 Q -369.896 718.252 -367.228 716.909 Q -364.560 715.566 -359.690 712.107 Q -354.820 708.648 -351.719 705.287 Q -348.618 701.926 -347.375 700.322 Q -346.132 698.719 -344.404 695.549 Q -342.675 692.379 -341.950 690.235 Q -341.225 688.092 -341.032 687.752 Q -340.838 687.412 -340.108 680.285 Q -339.378 673.157 -340.376 668.161 Q -341.374 663.164 -342.091 661.242 Q -342.808 659.320 -343.971 657.344 Q -345.133 655.368 -345.850 654.410 Q -346.567 653.453 -348.844 650.681 Q -351.122 647.908 -355.915 644.114 Q -360.709 640.319 -362.301 639.394 Q -363.894 638.468 -369.083 636.308 Q -374.272 634.149 -377.917 633.347 Q -381.561 632.545 -382.693 632.472 Q -383.825 632.400 -384.556 632.265 Q -385.287 632.130 -387.187 632.119 Q -389.087 632.108 -394.196 632.830 Q -399.305 633.552 -406.653 635.507 "></path>
    <path id="STROKE_af0d8af8-8103-4093-ba81-ffa75bbaba56" opacity="1.000" fill="none" stroke="#000000" stroke-width="4.815" stroke-opacity="1.000" stroke-linecap="round" stroke-linejoin="round" d="M -415.261 673.616 L -415.076 673.873 Q -414.029 676.010 -413.017 677.684 Q -412.115 678.280 -410.283 679.870 Q -408.451 681.459 -407.515 681.726 Q -406.579 681.993 -405.937 682.126 Q -405.295 682.260 -404.425 682.235 Q -403.555 682.210 -402.336 681.318 Q -401.116 680.426 -400.582 679.738 Q -400.047 679.049 -399.873 679.026 Q -399.699 679.003 -399.448 677.268 Q -399.196 675.534 -399.435 675.173 Q -399.675 674.812 -401.060 672.914 Q -400.987 672.895 -402.741 672.082 Q -402.931 671.685 -403.573 671.902 Q -404.215 672.119 -404.342 672.172 Q -404.470 672.224 -405.054 672.979 L -404.544 673.399 L -404.200 673.256 Q -403.811 672.246 -403.768 671.654 Q -403.724 671.062 -403.860 670.524 Q -403.997 669.985 -406.002 669.066 Q -406.191 669.000 -406.736 669.307 Q -407.282 669.615 -407.512 669.506 L -408.305 670.479 L -408.726 671.575 L -408.279 672.329 Q -407.389 672.583 -407.172 672.629 Q -406.954 672.675 -406.877 672.236 Q -406.800 671.798 -406.838 671.620 Q -406.875 671.442 -408.450 670.980 Q -409.085 671.252 -409.344 671.293 Q -409.603 671.334 -409.725 671.495 Q -409.847 671.657 -411.192 672.291 L -411.986 673.818 L -412.457 675.417 L -412.221 676.678 "></path>
    <path id="STROKE_de0d8fb3-f509-4b2a-b839-95bd1ac42491" opacity="1.000" fill="none" stroke="#000000" stroke-width="4.815" stroke-opacity="1.000" stroke-linecap="round" stroke-linejoin="round" d="M -401.453 602.810 L -404.292 602.784 Q -416.294 605.322 -420.926 606.310 Q -425.558 607.299 -427.085 607.698 Q -428.612 608.097 -432.560 609.922 Q -436.507 611.747 -443.489 616.827 Q -450.471 621.907 -454.054 625.963 Q -457.636 630.019 -460.672 634.410 Q -463.707 638.801 -464.595 640.661 Q -465.483 642.520 -466.421 644.110 Q -467.359 645.700 -469.138 652.132 Q -470.916 658.564 -471.415 662.569 Q -471.914 666.575 -471.760 670.095 Q -471.606 673.615 -471.600 674.813 Q -471.594 676.010 -470.914 680.085 Q -470.234 684.161 -469.369 687.164 Q -468.503 690.167 -468.011 692.002 Q -467.518 693.837 -466.913 695.458 Q -466.308 697.079 -464.097 701.680 Q -463.196 704.135 -461.823 706.677 "></path>
    <path id="STROKE_bbb7f25a-b972-4708-b670-1849b30b79dc" opacity="1.000" fill="none" stroke="#000000" stroke-width="4.815" stroke-opacity="1.000" stroke-linecap="round" stroke-linejoin="round" d="M -469.885 685.291 Q -470.947 686.328 -477.191 693.944 Q -477.735 694.564 -484.771 704.724 Q -491.807 714.883 -495.833 721.639 Q -499.859 728.395 -501.628 731.807 Q -503.396 735.219 -504.926 738.280 Q -506.456 741.340 -506.727 742.353 Q -506.999 743.367 -508.429 747.153 Q -509.858 750.938 -511.596 756.678 Q -513.334 762.418 -516.748 780.662 L -516.946 782.641 Q -517.381 784.211 -516.919 798.266 L -516.904 799.877 L -516.463 804.029 Q -516.051 807.235 -515.850 808.588 L -514.748 814.299 "></path>
    <path id="STROKE_b16a7a86-25c9-4f6f-abd5-9f7a19d6d801" opacity="1.000" fill="none" stroke="#000000" stroke-width="4.815" stroke-opacity="1.000" stroke-linecap="round" stroke-linejoin="round" d="M -508.458 809.236 Q -506.711 809.059 -504.262 809.323 Q -501.814 809.586 -496.446 810.008 Q -491.078 810.429 -487.755 810.703 Q -484.432 810.978 -473.867 810.807 Q -463.301 810.635 -453.865 811.145 Q -444.429 811.656 -439.108 812.338 Q -433.786 813.021 -431.239 813.501 Q -428.692 813.981 -420.538 816.756 Q -418.355 817.993 -415.011 821.718 Q -411.667 825.442 -411.317 826.385 Q -410.968 827.327 -410.480 828.425 Q -409.993 829.522 -410.162 833.202 Q -410.332 836.881 -410.301 837.096 Q -410.270 837.312 -418.486 848.734 L -419.156 849.027 Q -423.198 851.836 -424.170 852.356 Q -425.142 852.876 -427.301 853.693 Q -429.460 854.510 -432.241 855.273 Q -435.022 856.037 -435.767 856.339 Q -436.511 856.640 -439.113 857.052 Q -441.716 857.463 -444.365 857.677 L -446.872 858.369 Q -454.626 859.104 -455.190 859.291 Q -455.753 859.478 -464.093 859.509 Q -472.433 859.539 -476.335 859.126 Q -480.237 858.713 -481.005 858.658 Q -481.774 858.603 -485.729 857.877 L -488.215 857.706 Q -489.866 857.244 -490.780 857.003 Q -491.694 856.763 -492.931 856.482 Q -493.813 856.055 -500.804 850.284 "></path>
    <path id="STROKE_7372be05-37fe-4183-8a75-4afad9e5177e" opacity="1.000" fill="none" stroke="#000000" stroke-width="4.815" stroke-opacity="1.000" stroke-linecap="round" stroke-linejoin="round" d="M -500.653 807.060 L -500.633 809.430 L -500.721 811.499 Q -500.767 812.610 -500.790 813.524 Q -499.363 817.894 -498.847 818.629 Q -498.331 819.363 -496.764 822.003 Q -495.197 824.642 -493.038 827.020 Q -490.879 829.397 -488.172 830.948 Q -485.465 832.500 -483.811 833.102 Q -482.157 833.704 -481.100 833.891 Q -480.042 834.077 -479.091 834.295 Q -478.139 834.512 -476.700 834.523 Q -475.260 834.535 -473.780 834.707 Q -472.301 834.878 -469.469 834.479 Q -466.638 834.079 -465.802 833.983 Q -464.966 833.887 -463.688 833.323 Q -462.410 832.759 -460.366 831.930 Q -458.323 831.102 -454.540 828.771 Q -450.757 826.440 -450.514 826.325 Q -450.272 826.211 -440.202 819.797 Q -437.178 818.138 -435.407 817.146 Q -433.635 816.154 -430.158 813.577 "></path>
    <path id="STROKE_b7281f2a-cfe1-42ef-95df-077713e88bee" opacity="1.000" fill="none" stroke="#000000" stroke-width="4.815" stroke-opacity="1.000" stroke-linecap="round" stroke-linejoin="round" d="M -503.164 846.546 L -503.647 847.687 Q -504.733 850.022 -507.236 856.091 Q -509.739 862.159 -511.279 867.922 Q -512.819 873.685 -513.586 884.262 Q -514.352 894.840 -513.903 899.535 Q -513.453 904.231 -512.074 909.251 Q -510.694 914.272 -509.425 917.522 Q -508.156 920.772 -506.765 923.614 Q -505.375 926.456 -501.681 933.763 Q -500.257 935.341 -498.065 939.963 "></path>
    <path id="STROKE_c4447f4b-0457-4f05-b22d-414ef4bc0dab" opacity="1.000" fill="none" stroke="#000000" stroke-width="4.815" stroke-opacity="1.000" stroke-linecap="round" stroke-linejoin="round" d="M -502.325 946.220 L -499.788 945.469 L -496.388 944.885 "></path>
    <path id="STROKE_90275b6f-7137-4659-9984-9ed3b69abfd6" opacity="1.000" fill="none" stroke="#000000" stroke-width="4.815" stroke-opacity="1.000" stroke-linecap="round" stroke-linejoin="round" d="M -500.426 936.226 Q -497.904 938.730 -488.566 951.449 Q -479.228 964.168 -465.283 982.148 Q -451.338 1000.128 -443.819 1009.351 Q -436.301 1018.574 -425.421 1029.156 Q -414.541 1039.736 -405.682 1047.915 Q -396.824 1056.093 -383.611 1066.935 Q -370.399 1077.778 -358.222 1086.020 Q -346.045 1094.261 -331.244 1102.632 Q -316.444 1111.004 -308.723 1114.885 Q -301.002 1118.768 -291.973 1122.505 Q -282.945 1126.242 -273.263 1129.779 Q -263.582 1133.316 -251.820 1136.603 Q -240.058 1139.891 -233.656 1141.411 Q -227.254 1142.932 -204.974 1147.492 Q -182.695 1152.052 -161.530 1154.054 Q -140.366 1156.055 -127.639 1156.321 Q -114.912 1156.586 -104.696 1156.559 Q -94.480 1156.532 -86.719 1156.326 Q -78.959 1156.120 -54.649 1153.371 Q -30.339 1150.623 -15.385 1148.056 Q -0.432 1145.489 9.817 1143.108 Q 20.065 1140.728 28.475 1138.639 Q 36.884 1136.551 60.739 1128.922 Q 84.594 1121.293 103.268 1112.446 Q 121.942 1103.599 131.240 1098.256 Q 140.537 1092.913 156.391 1082.606 Q 172.246 1072.299 180.575 1066.245 Q 188.904 1060.191 193.945 1056.343 Q 198.986 1052.494 206.371 1045.466 Q 213.756 1038.439 217.507 1033.861 Q 221.258 1029.282 223.543 1026.275 Q 225.828 1023.268 231.905 1012.807 Q 237.982 1002.347 243.717 989.129 Q 249.452 975.910 253.762 960.748 Q 258.073 945.586 259.524 937.752 Q 260.974 929.918 261.550 924.380 Q 262.127 918.842 261.664 901.842 Q 261.202 884.841 259.885 874.543 Q 258.568 864.245 257.296 857.697 Q 256.023 851.150 250.611 832.052 Q 245.199 812.955 240.082 800.215 Q 234.965 787.475 227.947 775.572 Q 220.930 763.669 214.123 754.211 Q 207.317 744.754 202.526 739.059 Q 197.735 733.365 193.245 728.295 Q 188.754 723.225 182.922 717.151 Q 177.089 711.076 167.786 703.592 Q 158.482 696.107 151.319 691.131 Q 144.155 686.155 140.320 683.595 Q 136.484 681.035 131.778 677.839 Q 127.072 674.643 113.834 668.645 Q 100.597 662.647 93.128 659.953 Q 85.659 657.258 80.854 655.472 Q 76.050 653.685 68.492 651.095 Q 60.935 648.504 52.971 646.577 Q 45.006 644.650 27.689 642.364 "></path>
    <path id="STROKE_ec041f2a-ffad-4e45-8d82-001d4024f639" opacity="1.000" fill="none" stroke="#000000" stroke-width="4.815" stroke-opacity="1.000" stroke-linecap="round" stroke-linejoin="round" d="M -137.106 664.987 Q -143.225 667.708 -150.905 671.760 Q -158.585 675.812 -162.883 678.297 Q -167.181 680.782 -170.628 682.897 Q -174.075 685.013 -181.077 689.320 Q -188.080 693.626 -194.674 697.936 Q -201.269 702.246 -207.502 706.641 Q -213.734 711.035 -218.683 715.038 Q -223.632 719.040 -233.179 726.979 Q -242.727 734.917 -248.062 740.426 Q -253.396 745.934 -259.165 752.933 Q -264.934 759.933 -269.515 766.526 Q -274.095 773.118 -278.187 780.640 Q -282.279 788.162 -290.332 808.472 Q -291.448 813.035 -294.577 822.018 "></path>
    <path id="STROKE_8ba37ce4-2a80-4648-a973-441ab6bc6b63" opacity="1.000" fill="none" stroke="#000000" stroke-width="4.815" stroke-opacity="1.000" stroke-linecap="round" stroke-linejoin="round" d="M -293.414 828.632 L -292.798 829.480 Q -290.110 835.546 -287.913 839.652 Q -285.716 843.758 -281.760 848.934 Q -277.804 854.111 -271.494 860.522 Q -265.184 866.934 -248.245 879.129 Q -231.306 891.324 -210.881 901.846 Q -190.456 912.367 -178.985 917.034 Q -167.513 921.702 -159.907 924.288 Q -152.301 926.874 -147.607 928.255 Q -142.914 929.636 -135.210 931.805 Q -127.505 933.974 -123.702 934.849 Q -119.899 935.723 -113.015 937.422 Q -106.130 939.121 -96.064 940.743 Q -85.999 942.365 -73.994 943.329 Q -61.989 944.293 -49.515 943.575 Q -37.040 942.857 -27.466 941.407 Q -17.891 939.956 -9.838 938.594 Q -1.785 937.232 9.132 934.518 Q 20.048 931.803 25.890 930.039 Q 31.732 928.275 34.220 927.524 Q 36.708 926.773 40.058 925.525 Q 43.408 924.278 50.419 921.659 Q 57.430 919.041 67.309 914.830 Q 77.188 910.619 95.328 900.443 Q 113.469 890.266 120.815 885.066 Q 128.162 879.865 134.023 875.276 Q 139.883 870.687 148.160 862.915 Q 156.436 855.144 162.420 847.579 Q 168.404 840.015 174.127 829.081 Q 179.850 818.147 182.241 811.498 Q 184.633 804.848 186.697 797.585 Q 188.761 790.322 189.885 779.868 Q 191.008 769.414 191.057 763.300 Q 191.106 757.187 190.892 752.584 Q 190.588 751.387 189.656 743.530 "></path>
    <path id="STROKE_a67b0311-7d61-4767-8963-8e4e1f7c9b2c" opacity="1.000" fill="none" stroke="#000000" stroke-width="4.815" stroke-opacity="1.000" stroke-linecap="round" stroke-linejoin="round" d="M -269.130 767.694 L -268.330 768.221 Q -264.820 771.259 -254.545 781.771 Q -244.271 792.284 -236.139 799.515 Q -228.007 806.745 -211.275 817.625 Q -194.544 828.506 -181.267 835.470 Q -167.991 842.434 -157.441 846.617 Q -146.891 850.800 -118.368 855.468 Q -89.845 860.136 -81.651 860.400 Q -73.457 860.663 -69.145 860.442 Q -64.833 860.221 -58.123 859.357 Q -51.413 858.494 -39.598 856.594 Q -27.784 854.695 -23.812 853.634 Q -19.840 852.573 -7.064 848.860 Q 5.712 845.146 14.273 842.105 Q 22.834 839.064 39.532 831.309 Q 56.229 823.554 68.766 815.996 Q 81.304 808.437 89.035 802.554 Q 96.765 796.670 103.023 790.560 Q 109.281 784.449 114.891 777.025 Q 120.502 769.600 124.717 763.265 Q 128.933 756.930 132.797 749.177 Q 136.662 741.425 137.921 738.082 Q 139.181 734.739 140.607 731.364 Q 142.034 727.989 143.167 722.959 Q 144.300 717.930 144.689 708.285 "></path>
    <path id="STROKE_70e9a3c4-4e56-4d0b-81d7-cfe850979b68" opacity="1.000" fill="none" stroke="#000000" stroke-width="4.815" stroke-opacity="1.000" stroke-linecap="round" stroke-linejoin="round" d="M -207.084 717.906 Q -205.267 719.052 -200.195 724.327 Q -195.122 729.603 -183.745 739.138 Q -172.368 748.674 -166.197 752.953 Q -160.026 757.232 -148.718 763.027 Q -137.411 768.822 -125.415 772.494 Q -113.419 776.166 -98.831 778.522 Q -84.243 780.878 -76.289 781.542 Q -68.334 782.206 -52.679 779.214 Q -37.024 776.221 -27.724 772.763 Q -18.424 769.305 -14.601 767.809 Q -10.778 766.314 2.868 758.693 Q 16.515 751.071 23.043 746.550 Q 29.570 742.028 35.615 737.047 Q 41.659 732.066 45.492 728.803 Q 49.325 725.539 52.477 722.754 Q 55.628 719.968 63.070 712.045 Q 70.512 704.122 88.684 677.250 Q 89.021 676.429 94.655 667.428 "></path>
    <path id="STROKE_9c892020-0892-4540-a7c2-57b41556d14c" opacity="1.000" fill="none" stroke="#000000" stroke-width="4.815" stroke-opacity="1.000" stroke-linecap="round" stroke-linejoin="round" d="M -330.959 901.051 L -329.440 902.210 Q -325.488 906.889 -324.350 908.487 Q -323.211 910.086 -317.395 916.635 Q -311.579 923.185 -303.212 930.925 Q -294.844 938.666 -281.173 950.221 Q -267.502 961.777 -257.805 968.832 Q -248.108 975.886 -241.277 980.112 Q -234.447 984.338 -211.843 995.014 Q -189.240 1005.691 -176.216 1010.592 Q -163.192 1015.493 -150.844 1018.692 Q -138.495 1021.892 -128.711 1023.471 Q -118.928 1025.050 -105.052 1026.713 Q -91.176 1028.376 -77.330 1028.849 Q -63.484 1029.322 -43.186 1027.768 Q -22.888 1026.214 -11.800 1024.615 Q -0.712 1023.015 12.676 1019.059 Q 26.064 1015.104 39.787 1009.850 Q 53.510 1004.596 70.363 998.406 Q 87.216 992.216 98.583 987.724 Q 109.951 983.231 115.122 980.775 Q 120.293 978.319 124.237 976.379 Q 128.180 974.439 139.632 967.822 Q 151.083 961.205 158.849 955.661 Q 166.615 950.117 170.675 946.502 Q 174.735 942.887 177.641 940.283 Q 180.548 937.679 185.764 933.311 Q 190.980 928.943 203.321 914.285 Q 215.661 899.626 221.216 891.875 Q 226.770 884.124 228.910 880.420 Q 231.049 876.716 231.566 875.652 Q 232.084 874.589 236.317 864.429 Q 240.550 854.268 243.850 843.750 Q 243.989 843.393 242.213 838.468 "></path>
    <path id="STROKE_db85b56f-c08b-40e3-9fad-6e171dd3b1fb" opacity="1.000" fill="none" stroke="#000000" stroke-width="4.815" stroke-opacity="1.000" stroke-linecap="round" stroke-linejoin="round" d="M -372.574 973.794 L -372.116 974.148 L -370.056 976.772 Q -368.844 978.612 -356.312 991.108 Q -343.779 1003.604 -331.510 1015.136 Q -319.241 1026.668 -312.389 1032.252 Q -305.537 1037.835 -293.010 1045.519 Q -280.483 1053.203 -262.839 1063.020 Q -245.194 1072.838 -233.714 1079.244 Q -222.233 1085.651 -215.189 1089.308 Q -208.144 1092.965 -197.331 1098.367 Q -186.517 1103.769 -180.476 1106.376 Q -174.435 1108.984 -169.281 1110.726 Q -164.126 1112.468 -147.344 1116.779 L -141.184 1118.005 "></path>
    <path id="STROKE_aa32f02c-add6-4e09-add8-7228718fba49" opacity="1.000" fill="none" stroke="#000000" stroke-width="4.815" stroke-opacity="1.000" stroke-linecap="round" stroke-linejoin="round" d="M -20.127 1110.969 Q -18.177 1110.748 -3.603 1107.742 Q 10.971 1104.737 21.079 1102.447 Q 31.186 1100.156 43.879 1095.249 Q 56.573 1090.341 65.898 1086.492 Q 75.224 1082.643 82.204 1080.284 Q 89.184 1077.926 103.472 1071.714 Q 117.760 1065.501 130.099 1059.411 Q 142.438 1053.321 152.794 1046.908 Q 163.150 1040.495 170.498 1035.490 Q 177.846 1030.484 181.534 1027.893 Q 185.222 1025.303 190.458 1021.639 Q 195.693 1017.975 199.658 1014.987 Q 203.622 1011.998 206.196 1009.966 Q 208.771 1007.934 215.308 1002.247 L 216.726 1001.446 "></path>
    <path id="STROKE_2afb1fde-f4bf-404d-8dc4-0ef37643512d" opacity="1.000" fill="none" stroke="#000000" stroke-width="4.815" stroke-opacity="1.000" stroke-linecap="round" stroke-linejoin="round" d="M -104.300 652.156 L -103.904 652.860 Q -99.722 658.846 -97.544 661.571 Q -95.366 664.296 -93.142 666.341 Q -90.917 668.386 -88.237 670.820 Q -85.556 673.255 -82.933 675.155 Q -80.309 677.054 -75.738 679.352 Q -71.168 681.650 -67.784 682.922 Q -64.400 684.193 -62.940 684.560 Q -61.480 684.926 -59.234 685.217 Q -56.989 685.509 -54.126 685.578 Q -51.262 685.647 -49.685 685.665 Q -48.108 685.682 -46.749 685.611 Q -45.391 685.539 -44.169 685.324 Q -42.948 685.109 -37.742 683.334 Q -32.535 681.558 -26.250 679.550 "></path>
    <path id="STROKE_2d899f30-c8eb-4032-a5e4-77baa8a4d80f" opacity="1.000" fill="none" stroke="#000000" stroke-width="4.815" stroke-opacity="1.000" stroke-linecap="round" stroke-linejoin="round" d="M -35.146 654.432 Q -33.619 653.779 -25.124 650.749 Q -16.630 647.718 -10.910 645.841 Q -5.189 643.964 -2.055 642.848 Q 1.080 641.732 4.235 640.379 Q 7.390 639.027 14.620 636.438 Q 21.851 633.849 28.273 632.099 Q 34.695 630.350 41.792 628.058 Q 48.889 625.766 53.945 624.363 Q 59.000 622.960 65.845 622.123 Q 72.690 621.286 79.442 619.838 Q 86.194 618.391 93.322 615.714 Q 100.449 613.036 104.026 611.217 Q 107.603 609.399 109.099 608.141 Q 110.595 606.883 112.131 605.524 Q 113.666 604.166 116.295 600.975 Q 118.924 597.785 120.354 594.606 Q 121.784 591.427 122.028 589.499 Q 122.272 587.570 121.955 584.931 Q 121.637 582.291 121.398 581.481 Q 121.159 580.671 120.440 579.591 Q 119.721 578.511 118.796 577.524 Q 117.872 576.537 117.351 575.811 Q 116.830 575.085 113.206 571.905 Q 109.582 568.725 105.627 565.876 Q 101.671 563.028 96.463 560.159 Q 91.254 557.290 81.809 554.064 Q 72.364 550.838 68.651 549.857 Q 64.938 548.876 57.604 547.846 Q 50.270 546.815 46.494 547.056 Q 42.717 547.297 38.317 547.829 Q 33.918 548.361 28.534 549.603 Q 23.151 550.845 17.970 552.985 Q 12.789 555.125 10.028 556.483 Q 7.267 557.841 4.495 559.573 Q 1.723 561.304 -1.818 563.855 Q -5.359 566.406 -6.965 567.576 Q -8.572 568.746 -14.480 573.291 Q -20.387 577.835 -23.992 581.459 Q -27.596 585.082 -30.155 587.654 Q -32.713 590.226 -33.129 590.719 Q -33.545 591.211 -37.182 594.854 Q -40.819 598.496 -42.854 600.518 Q -44.890 602.539 -47.172 605.025 Q -49.453 607.510 -53.955 612.291 L -57.048 615.877 "></path>
    <path id="STROKE_a68cc4b6-a1fc-4c55-a6f1-b2ca2b1eb7cf" opacity="1.000" fill="none" stroke="#000000" stroke-width="4.815" stroke-opacity="1.000" stroke-linecap="round" stroke-linejoin="round" d="M -39.250 616.109 Q -37.049 614.091 -29.514 608.737 Q -21.979 603.383 -16.671 599.513 Q -11.363 595.642 -4.677 591.082 Q 2.008 586.523 5.446 584.279 Q 8.884 582.035 13.456 579.057 Q 18.028 576.078 27.065 570.599 Q 36.102 565.121 41.179 562.531 Q 46.257 559.941 49.244 558.453 Q 52.232 556.966 58.602 555.088 "></path>
    <path id="STROKE_249c8a57-c709-4fb6-a058-b1b8ebaed994" opacity="1.000" fill="none" stroke="#000000" stroke-width="4.815" stroke-opacity="1.000" stroke-linecap="round" stroke-linejoin="round" d="M 3.668 607.105 Q 5.438 606.070 16.678 600.633 Q 27.918 595.196 34.611 592.140 Q 41.303 589.084 45.897 586.905 Q 50.491 584.725 53.422 583.546 Q 56.354 582.366 66.142 577.903 Q 75.929 573.440 80.306 571.593 Q 84.682 569.747 87.216 568.616 Q 89.749 567.486 94.672 565.554 "></path>
    <path id="STROKE_d994ee11-49b5-4291-8603-e217614bbaaa" opacity="1.000" fill="none" stroke="#000000" stroke-width="4.815" stroke-opacity="1.000" stroke-linecap="round" stroke-linejoin="round" d="M -54.774 595.713 Q -56.760 596.679 -59.273 597.864 Q -61.787 599.050 -65.322 601.368 Q -68.858 603.687 -70.719 605.114 Q -72.580 606.541 -75.155 608.559 Q -77.730 610.578 -78.328 611.279 Q -78.926 611.981 -80.366 614.208 L -83.158 617.311 "></path>
    <path id="STROKE_1ae2ab86-0f03-442d-98fb-22f7c855d4ae" opacity="1.000" fill="none" stroke="#000000" stroke-width="4.815" stroke-opacity="1.000" stroke-linecap="round" stroke-linejoin="round" d="M 250.051 826.969 L 250.614 825.667 Q 252.498 822.934 256.401 812.919 Q 260.304 802.904 262.223 795.089 Q 264.143 787.274 264.397 769.758 Q 264.650 752.242 262.333 738.623 Q 260.017 725.004 258.652 719.978 Q 257.288 714.953 254.957 708.672 Q 252.626 702.391 246.489 689.602 L 245.921 688.720 L 238.687 683.017 "></path>
    <path id="STROKE_9395e0bb-b0c4-4c0a-8ad3-dddca7f18aef" opacity="1.000" fill="none" stroke="#000000" stroke-width="4.815" stroke-opacity="1.000" stroke-linecap="round" stroke-linejoin="round" d="M 154.078 543.556 Q 155.221 543.582 165.265 542.888 Q 175.308 542.195 182.103 541.833 Q 188.897 541.471 197.360 542.239 Q 205.824 543.008 213.592 544.040 Q 221.360 545.072 231.259 546.554 Q 232.221 547.488 232.422 547.695 Q 232.623 547.903 233.396 547.731 "></path>
    <path id="STROKE_6a0ceaa6-a562-4a27-9b5e-598ccce9f585" opacity="1.000" fill="none" stroke="#000000" stroke-width="4.815" stroke-opacity="1.000" stroke-linecap="round" stroke-linejoin="round" d="M 216.806 541.401 Q 218.898 539.188 222.154 534.905 Q 225.409 530.623 231.020 524.226 Q 236.630 517.829 241.941 512.385 Q 247.253 506.941 251.487 502.770 Q 255.722 498.600 259.682 494.889 Q 263.642 491.177 272.840 484.659 Q 282.037 478.141 288.089 474.749 Q 294.142 471.358 296.902 469.830 Q 299.661 468.301 309.390 465.043 Q 319.118 461.784 324.940 460.593 Q 330.762 459.401 333.659 459.084 Q 336.556 458.766 338.844 458.544 Q 341.132 458.321 346.352 458.890 Q 351.572 459.460 356.068 460.256 Q 360.564 461.053 366.022 463.116 Q 371.481 465.179 378.935 470.833 Q 386.390 476.487 387.605 477.735 Q 388.821 478.983 391.945 484.006 Q 395.068 489.029 396.199 491.571 Q 397.330 494.112 399.255 498.846 Q 401.179 503.580 402.630 514.166 Q 404.082 524.752 403.912 530.384 Q 403.743 536.015 403.418 538.579 Q 403.093 541.143 402.443 544.301 Q 401.793 547.459 401.732 548.241 Q 401.671 549.023 383.541 581.458 Q 382.331 582.283 380.217 583.882 Q 378.104 585.482 375.422 586.903 Q 372.741 588.325 369.394 589.410 Q 366.047 590.495 363.867 591.266 Q 361.687 592.038 360.279 592.345 Q 358.871 592.652 358.371 592.858 Q 357.871 593.064 347.520 593.659 L 341.343 594.301 Q 336.068 593.878 334.246 593.866 Q 332.425 593.854 331.064 593.696 Q 329.704 593.537 327.720 593.230 Q 325.736 592.924 322.403 592.792 "></path>
    <path id="STROKE_de57ab53-0988-4823-81bf-94dc6013d49b" opacity="1.000" fill="none" stroke="#000000" stroke-width="4.815" stroke-opacity="1.000" stroke-linecap="round" stroke-linejoin="round" d="M 262.265 532.746 Q 267.279 527.740 273.064 523.523 Q 278.850 519.306 283.842 516.062 Q 288.833 512.818 294.056 509.644 Q 299.279 506.470 302.451 504.727 Q 305.622 502.984 314.010 498.758 Q 322.397 494.532 328.268 492.470 Q 334.138 490.407 345.448 486.486 Q 356.759 482.564 366.806 479.563 L 369.698 479.887 Q 370.458 479.808 371.061 479.670 Q 371.663 479.532 375.335 482.966 "></path>
    <path id="STROKE_01bf2a77-7737-415e-99c3-db118da4f5e3" opacity="1.000" fill="none" stroke="#000000" stroke-width="4.815" stroke-opacity="1.000" stroke-linecap="round" stroke-linejoin="round" d="M 299.135 556.775 L 303.965 553.745 Q 306.646 551.857 317.302 546.676 Q 327.959 541.495 338.407 537.965 Q 348.854 534.435 354.485 532.789 Q 360.115 531.143 364.234 530.535 Q 368.354 529.927 374.653 528.715 Q 380.953 527.502 384.910 526.825 Q 388.867 526.148 389.337 526.182 Q 389.808 526.216 393.305 525.976 Q 396.801 525.736 398.677 525.520 Q 400.552 525.304 402.858 525.635 Q 403.488 525.943 409.588 528.175 "></path>
    <path id="STROKE_7c0675b8-0ee2-48e1-8780-c6709eb23434" opacity="1.000" fill="none" stroke="#000000" stroke-width="4.815" stroke-opacity="1.000" stroke-linecap="round" stroke-linejoin="round" d="M 345.023 571.174 Q 348.534 570.502 380.789 576.193 L 387.208 577.932 "></path>
    <path id="STROKE_55958d03-b024-4707-b191-ba3b644ad29e" opacity="1.000" fill="none" stroke="#000000" stroke-width="4.815" stroke-opacity="1.000" stroke-linecap="round" stroke-linejoin="round" d="M 252.011 702.388 Q 270.151 697.354 276.077 695.127 Q 282.004 692.900 289.232 689.842 Q 296.461 686.784 306.860 681.930 Q 317.260 677.077 326.783 671.924 Q 328.471 671.000 334.004 668.603 "></path>
    <path id="STROKE_e5b1df01-9890-47b8-bd42-558f9bb7f5e9" opacity="1.000" fill="none" stroke="#000000" stroke-width="4.815" stroke-opacity="1.000" stroke-linecap="round" stroke-linejoin="round" d="M 321.602 676.526 Q 323.550 677.609 329.604 683.374 Q 335.658 689.139 339.331 692.305 Q 343.003 695.471 345.251 697.022 Q 347.500 698.572 349.470 699.727 Q 351.440 700.882 354.425 702.711 Q 357.409 704.539 363.760 707.509 Q 370.110 710.479 374.108 711.763 Q 378.105 713.047 388.310 714.608 Q 398.515 716.170 403.007 716.172 Q 407.498 716.173 413.300 715.398 Q 419.102 714.623 423.146 713.152 Q 427.190 711.681 432.693 709.391 Q 438.196 707.100 442.548 703.673 Q 446.901 700.245 448.822 697.961 Q 450.743 695.676 451.529 694.724 Q 452.315 693.771 454.040 690.821 Q 455.765 687.871 457.427 683.544 Q 459.090 679.217 459.945 674.432 Q 460.801 669.648 460.682 666.153 Q 460.563 662.659 460.255 660.952 Q 459.947 659.246 458.300 654.388 Q 456.652 649.530 455.119 647.109 Q 453.586 644.688 448.132 638.638 Q 442.678 632.588 441.742 632.027 Q 440.805 631.465 437.376 629.548 Q 433.946 627.632 429.392 626.365 Q 424.838 625.097 422.121 624.851 Q 419.404 624.605 415.329 625.066 Q 411.255 625.527 409.078 625.926 Q 406.902 626.326 404.323 627.172 Q 401.612 628.476 400.447 629.311 Q 399.282 630.145 396.781 633.427 Q 396.802 634.053 396.915 634.383 Q 397.027 634.714 397.327 636.186 Q 397.627 637.658 397.897 638.314 Q 398.166 638.970 399.055 640.333 Q 399.944 641.696 403.278 645.735 Q 406.611 649.774 416.505 662.688 Q 417.933 663.582 421.981 668.571 "></path>
    <path id="STROKE_0c108135-1de3-46ca-8a18-d6f6ed48e4e0" opacity="1.000" fill="none" stroke="#000000" stroke-width="4.815" stroke-opacity="1.000" stroke-linecap="round" stroke-linejoin="round" d="M 356.438 651.730 L 358.318 652.746 Q 371.664 664.659 372.027 664.948 Q 372.391 665.238 389.024 680.885 L 393.279 684.235 "></path>
    <path id="STROKE_f95e1d4a-717e-4969-a4de-17238079bd1c" opacity="1.000" fill="none" stroke="#000000" stroke-width="4.815" stroke-opacity="1.000" stroke-linecap="round" stroke-linejoin="round" d="M 386.317 638.952 Q 391.547 636.367 392.679 635.931 Q 393.810 635.496 397.162 633.937 Q 400.514 632.379 403.758 631.358 Q 407.002 630.338 408.411 629.999 Q 409.821 629.660 413.822 628.035 Q 417.823 626.410 422.814 624.162 "></path>
    <path id="STROKE_f197a60d-cbd2-4aca-b950-67f52df127a8" opacity="1.000" fill="none" stroke="#000000" stroke-width="4.815" stroke-opacity="1.000" stroke-linecap="round" stroke-linejoin="round" d="M 397.276 558.982 Q 403.741 556.811 408.514 555.471 Q 413.286 554.130 416.238 552.958 Q 419.190 551.786 419.356 551.595 Q 419.523 551.403 419.674 551.448 Q 419.825 551.492 421.223 550.728 Q 422.412 550.886 425.615 550.267 "></path>
    <path id="STROKE_16729320-e69f-4b5a-bf06-d13afcf4cc4c" opacity="1.000" fill="none" stroke="#000000" stroke-width="4.815" stroke-opacity="1.000" stroke-linecap="round" stroke-linejoin="round" d="M 425.452 548.232 Q 428.585 543.835 435.426 534.202 Q 436.448 533.371 441.166 528.012 Q 445.883 522.653 450.109 518.189 Q 454.336 513.725 458.546 509.698 Q 462.757 505.671 468.792 500.298 Q 474.827 494.925 479.851 491.020 Q 484.874 487.114 491.556 481.901 Q 498.238 476.688 504.582 472.569 Q 510.926 468.451 513.305 467.259 Q 515.684 466.068 520.295 463.698 Q 524.906 461.328 528.289 459.859 Q 531.673 458.390 535.046 457.261 Q 538.420 456.132 538.905 455.927 Q 539.390 455.722 544.005 454.646 Q 548.619 453.569 553.598 453.101 Q 558.577 452.633 560.559 452.521 Q 562.542 452.409 565.636 452.945 Q 568.730 453.482 571.266 453.937 Q 573.801 454.391 579.150 456.019 Q 584.498 457.648 588.100 459.716 Q 591.702 461.784 595.151 465.417 Q 598.601 469.049 600.548 472.520 Q 602.495 475.991 602.929 477.245 Q 603.364 478.499 603.548 478.808 Q 603.732 479.117 604.333 488.013 Q 604.934 496.909 604.362 499.771 Q 603.791 502.634 603.138 504.649 Q 602.485 506.664 601.344 509.892 Q 600.202 513.120 598.682 516.345 Q 597.161 519.570 596.462 521.033 Q 595.763 522.496 594.918 524.010 Q 594.074 525.524 592.093 529.314 Q 590.113 533.105 589.154 534.575 Q 588.195 536.044 585.423 541.394 Q 582.650 546.743 581.067 549.846 Q 579.485 552.949 577.399 556.681 Q 575.313 560.413 570.721 569.148 Q 566.130 577.882 563.665 583.429 Q 561.200 588.976 558.296 596.580 Q 557.974 597.165 556.179 606.777 Q 554.384 616.389 554.002 625.258 Q 553.620 634.127 553.631 638.071 Q 553.643 642.015 553.531 646.577 Q 553.419 651.140 552.877 659.524 Q 552.335 667.909 551.493 673.153 Q 550.650 678.397 549.929 681.053 Q 549.207 683.709 546.936 689.524 Q 544.665 695.339 542.131 699.519 Q 539.598 703.700 538.012 705.514 Q 536.426 707.328 535.028 708.562 Q 533.630 709.796 531.908 711.162 Q 530.186 712.527 528.580 713.392 Q 526.974 714.256 525.812 714.892 Q 524.650 715.527 522.628 715.828 Q 520.606 716.128 517.490 716.661 Q 514.373 717.195 512.340 717.133 Q 510.307 717.071 506.747 716.675 Q 503.188 716.279 501.055 715.776 Q 498.922 715.274 495.022 713.665 Q 491.121 712.057 487.946 710.617 Q 484.771 709.177 481.227 706.482 Q 477.683 703.788 475.574 702.178 Q 473.464 700.569 471.899 699.033 Q 470.334 697.497 468.318 695.621 Q 466.303 693.744 464.456 691.865 Q 462.609 689.987 461.776 689.021 Q 460.943 688.054 456.343 682.760 "></path>
    <path id="STROKE_91c13965-74eb-427a-be05-69bff009275f" opacity="1.000" fill="none" stroke="#000000" stroke-width="4.815" stroke-opacity="1.000" stroke-linecap="round" stroke-linejoin="round" d="M 473.905 556.198 L 477.211 554.003 Q 479.369 553.007 487.521 548.975 Q 495.674 544.943 503.641 541.930 Q 511.607 538.916 516.136 537.640 Q 520.665 536.363 523.405 535.762 Q 526.144 535.161 527.910 534.585 Q 529.676 534.008 532.664 533.321 Q 535.652 532.634 542.427 531.189 Q 549.202 529.745 555.316 528.419 Q 561.431 527.093 565.231 526.469 Q 569.031 525.845 572.997 525.355 Q 576.963 524.866 582.245 524.148 Q 583.344 524.314 586.744 524.046 "></path>
    <path id="STROKE_4f2920f4-9b03-42a1-83cd-9748f03f2f2e" opacity="1.000" fill="none" stroke="#000000" stroke-width="4.815" stroke-opacity="1.000" stroke-linecap="round" stroke-linejoin="round" d="M 492.290 582.536 L 494.013 582.471 Q 495.097 582.452 505.902 580.256 Q 516.706 578.059 525.909 576.633 Q 535.112 575.207 539.657 575.024 Q 544.202 574.841 549.282 573.535 Q 554.361 572.228 557.419 572.424 "></path>
    <path id="STROKE_55179767-3498-4d61-af36-a584d7407207" opacity="1.000" fill="none" stroke="#000000" stroke-width="4.815" stroke-opacity="1.000" stroke-linecap="round" stroke-linejoin="round" d="M 484.030 617.935 Q 487.972 617.967 497.742 619.861 Q 507.511 621.755 514.967 622.800 Q 522.422 623.844 526.555 624.296 Q 530.687 624.747 533.991 624.845 Q 537.296 624.943 542.994 625.599 "></path>
    <path id="STROKE_75d4ac19-998c-4f83-bcde-96c4763323d9" opacity="1.000" fill="none" stroke="#000000" stroke-width="4.815" stroke-opacity="1.000" stroke-linecap="round" stroke-linejoin="round" d="M 499.645 660.875 Q 500.494 661.255 505.192 664.124 Q 509.890 666.993 515.511 670.996 Q 521.132 674.998 524.857 679.392 Q 525.897 680.537 520.406 686.373 "></path>
    <path id="STROKE_6b3f5c17-7bb6-4b8d-8cf4-6416f47ae2db" opacity="1.000" fill="none" stroke="#000000" stroke-width="4.815" stroke-opacity="1.000" stroke-linecap="round" stroke-linejoin="round" d="M -222.701 432.569 Q -218.540 430.467 -209.777 426.093 Q -201.013 421.719 -180.432 415.257 "></path>
    <path id="STROKE_c3dda834-6c49-4d15-9fcc-6509faec716f" opacity="1.000" fill="none" stroke="#000000" stroke-width="4.815" stroke-opacity="1.000" stroke-linecap="round" stroke-linejoin="round" d="M -350.444 509.758 Q -349.767 503.762 -349.694 501.559 Q -349.622 499.357 -349.284 497.874 Q -348.947 496.392 -348.337 481.499 Q -347.727 466.607 -347.179 459.054 Q -346.630 451.501 -345.651 448.444 Q -344.672 445.387 -340.806 439.559 L -339.447 439.488 Q -337.073 439.951 -332.116 442.389 Q -327.159 444.827 -322.849 448.977 Q -318.538 453.127 -316.498 455.608 Q -314.458 458.090 -312.725 460.066 Q -310.993 462.041 -306.732 467.534 "></path>
    <path id="STROKE_279f01a0-285a-40a7-b971-4ac0f9739f0e" opacity="1.000" fill="none" stroke="#000000" stroke-width="4.815" stroke-opacity="1.000" stroke-linecap="round" stroke-linejoin="round" d="M -275.241 575.620 Q -275.630 575.021 -277.786 573.543 L -279.832 570.951 Q -280.262 570.032 -288.186 559.680 Q -296.110 549.329 -299.384 544.015 Q -302.658 538.701 -303.859 535.348 Q -305.059 531.995 -305.465 529.796 Q -305.870 527.596 -305.673 520.607 Q -304.317 519.440 -302.455 519.051 Q -300.593 518.662 -299.327 518.719 Q -298.061 518.776 -295.689 519.509 Q -293.318 520.241 -290.274 521.428 Q -287.230 522.615 -282.397 524.760 Q -277.563 526.905 -273.380 529.176 Q -269.197 531.447 -264.985 534.114 Q -260.773 536.781 -257.799 538.527 Q -254.825 540.274 -242.387 547.426 L -237.351 550.326 "></path>
    <path id="STROKE_f8c01b3e-d0c4-40d8-a958-82cca032d7ec" opacity="1.000" fill="none" stroke="#000000" stroke-width="4.815" stroke-opacity="1.000" stroke-linecap="round" stroke-linejoin="round" d="M -50.267 518.433 Q -49.341 516.943 -42.404 509.693 Q -35.467 502.444 -26.191 494.306 Q -16.915 486.169 -11.143 481.393 Q -5.370 476.617 1.733 470.118 Q 2.582 469.566 5.679 468.115 "></path>
    <path id="STROKE_002edd49-a404-4c66-9f44-d934112412cc" opacity="1.000" fill="none" stroke="#000000" stroke-width="4.815" stroke-opacity="1.000" stroke-linecap="round" stroke-linejoin="round" d="M -3.320 520.970 Q -3.056 518.790 0.608 503.226 Q 4.271 487.661 5.924 481.204 Q 7.577 474.748 7.734 474.528 Q 7.890 474.308 9.236 468.806 "></path>
    <path id="STROKE_422b874c-8cf1-43cf-b536-40a7e31b25df" opacity="1.000" fill="none" stroke="#000000" stroke-width="4.815" stroke-opacity="1.000" stroke-linecap="round" stroke-linejoin="round" d="M 128.924 611.271 Q 130.071 610.914 149.885 605.330 Q 169.699 599.745 179.747 596.587 Q 189.796 593.429 196.798 591.337 "></path>
    <path id="STROKE_8184fa0d-885f-42a7-b255-66a3419a5969" opacity="1.000" fill="none" stroke="#000000" stroke-width="4.815" stroke-opacity="1.000" stroke-linecap="round" stroke-linejoin="round" d="M 164.273 633.939 Q 166.009 630.429 170.597 619.748 Q 175.185 609.066 183.125 593.525 Q 183.189 591.093 184.606 587.734 "></path>
    <path id="STROKE_b5b3c3f6-244a-4516-b2bc-3c4877283116" opacity="1.000" fill="none" stroke="#000000" stroke-width="4.815" stroke-opacity="1.000" stroke-linecap="round" stroke-linejoin="round" d="M 205.622 637.474 Q 207.429 636.963 236.527 621.987 "></path>
    <path id="STROKE_facb8ac7-aa88-4500-a508-ef6da2aae0f3" opacity="1.000" fill="none" stroke="#000000" stroke-width="4.815" stroke-opacity="1.000" stroke-linecap="round" stroke-linejoin="round" d="M 223.727 646.690 Q 228.668 640.975 242.448 625.397 "></path>
    <path id="STROKE_372841ba-cd95-43a7-9b85-858c2ebfca84" opacity="1.000" fill="none" stroke="#000000" stroke-width="4.815" stroke-opacity="1.000" stroke-linecap="round" stroke-linejoin="round" d="M -246.344 650.135 Q -245.297 649.411 -245.329 649.313 Q -245.362 649.214 -245.482 648.277 Q -245.602 647.340 -245.388 645.468 Q -245.173 643.597 -244.384 641.794 Q -243.594 639.990 -241.684 638.176 Q -239.773 636.363 -233.266 635.630 Q -226.758 634.897 -216.927 633.967 L -212.720 632.793 "></path>
    <path id="STROKE_094145ed-9aab-4305-9c44-f340d6d8596e" opacity="1.000" fill="none" stroke="#000000" stroke-width="4.815" stroke-opacity="1.000" stroke-linecap="round" stroke-linejoin="round" d="M -243.951 644.211 Q -243.854 645.412 -237.643 656.941 Q -237.812 656.909 -239.515 656.101 Q -241.218 655.292 -241.831 654.824 Q -242.445 654.355 -242.950 653.393 Q -243.169 654.409 -243.259 655.335 L -243.819 655.229 "></path>
    <path id="STROKE_4da80994-77f4-4fa3-a2fa-ea73192bb360" opacity="1.000" fill="none" stroke="#000000" stroke-width="4.815" stroke-opacity="1.000" stroke-linecap="round" stroke-linejoin="round" d="M -250.414 650.460 Q -248.872 651.648 -244.437 656.195 Q -240.002 660.742 -236.507 664.178 Q -233.012 667.614 -223.384 676.998 "></path>
    <path id="STROKE_6c9e7549-46c7-491e-bc28-4a350f7d43f2" opacity="1.000" fill="none" stroke="#000000" stroke-width="4.815" stroke-opacity="1.000" stroke-linecap="round" stroke-linejoin="round" d="M -213.409 635.842 Q -211.707 635.983 -196.296 638.105 "></path>
    <path id="STROKE_6e3b3ce0-410d-4a7e-aaba-1e6eafa3db77" opacity="1.000" fill="none" stroke="#000000" stroke-width="4.815" stroke-opacity="1.000" stroke-linecap="round" stroke-linejoin="round" d="M -158.087 569.927 Q -156.191 570.914 -153.015 573.674 "></path>
    <path id="STROKE_b0466dc0-894d-4c44-bbe7-184ab6aff10c" opacity="1.000" fill="none" stroke="#000000" stroke-width="4.815" stroke-opacity="1.000" stroke-linecap="round" stroke-linejoin="round" d="M -162.803 561.265 Q -162.182 561.071 -159.370 558.628 Q -156.558 556.186 -153.585 554.479 Q -150.612 552.773 -148.948 552.046 Q -147.283 551.320 -144.866 550.902 Q -142.449 550.485 -139.869 550.282 Q -137.290 550.079 -134.524 550.452 Q -131.758 550.825 -129.416 551.619 Q -127.074 552.413 -125.498 553.045 Q -123.922 553.676 -105.190 567.399 "></path>
    <path id="STROKE_c1066f1d-7e7c-43cb-8cd1-4a9bcbf6ef6d" opacity="1.000" fill="none" stroke="#000000" stroke-width="1.600" stroke-opacity="1.000" stroke-linecap="round" stroke-linejoin="round" d="M -322.551 920.235 L -323.266 920.536 Q -326.292 921.316 -326.822 922.181 Q -330.068 923.767 -336.027 931.045 Q -341.986 938.323 -344.422 944.430 Q -346.857 950.538 -347.660 953.243 Q -348.463 955.948 -349.068 967.631 Q -349.674 979.314 -344.524 999.149 "></path>
    <path id="STROKE_262e8926-0695-4b02-923d-2f06731cd4f6" opacity="1.000" fill="none" stroke="#000000" stroke-width="1.600" stroke-opacity="1.000" stroke-linecap="round" stroke-linejoin="round" d="M -308.224 943.677 L -310.560 943.870 Q -312.782 944.208 -313.045 944.487 Q -313.309 944.766 -314.562 945.149 Q -315.815 945.531 -320.846 950.445 Q -325.877 955.359 -329.603 964.104 Q -333.328 972.850 -334.116 980.199 Q -334.903 987.547 -332.892 995.815 Q -330.880 1004.082 -314.606 1023.832 "></path>
    <path id="STROKE_94b064b3-5a27-454a-90d8-659a2ad19dd9" opacity="1.000" fill="none" stroke="#000000" stroke-width="1.600" stroke-opacity="1.000" stroke-linecap="round" stroke-linejoin="round" d="M -274.019 954.306 Q -275.715 956.982 -281.993 965.703 Q -288.272 974.424 -292.523 982.989 Q -296.774 991.553 -298.344 1003.841 Q -299.913 1016.129 -298.828 1021.255 Q -297.743 1026.382 -295.071 1031.292 Q -292.399 1036.203 -287.529 1039.020 Q -282.659 1041.836 -269.415 1043.652 "></path>
    <path id="STROKE_68555009-e464-4ad0-847e-6e05dd370640" opacity="1.000" fill="none" stroke="#000000" stroke-width="1.600" stroke-opacity="1.000" stroke-linecap="round" stroke-linejoin="round" d="M -234.974 986.479 Q -239.653 992.332 -245.133 1002.380 Q -250.613 1012.428 -252.509 1025.444 Q -254.406 1038.461 -252.715 1048.024 Q -251.024 1057.587 -248.806 1062.199 Q -246.587 1066.811 -242.185 1070.951 Q -237.782 1075.091 -220.378 1078.403 "></path>
    <path id="STROKE_cfdc8e1e-7805-492d-8043-b89aa8d037fd" opacity="1.000" fill="none" stroke="#000000" stroke-width="1.600" stroke-opacity="1.000" stroke-linecap="round" stroke-linejoin="round" d="M -194.521 1003.740 Q -194.890 1004.534 -199.151 1009.620 Q -203.411 1014.707 -207.345 1021.387 Q -211.280 1028.067 -213.874 1033.936 Q -216.468 1039.805 -217.709 1049.476 Q -218.949 1059.147 -217.086 1068.289 Q -215.223 1077.430 -203.483 1094.565 "></path>
    <path id="STROKE_80df934b-06db-4ad5-a186-94bcecc5cfab" opacity="1.000" fill="none" stroke="#000000" stroke-width="1.600" stroke-opacity="1.000" stroke-linecap="round" stroke-linejoin="round" d="M -176.791 1023.635 Q -177.063 1024.300 -182.486 1037.223 Q -187.908 1050.146 -189.094 1061.629 Q -190.279 1073.112 -189.046 1080.148 Q -187.812 1087.185 -186.253 1091.552 Q -184.694 1095.919 -182.847 1099.561 Q -181.001 1103.203 -174.388 1112.126 "></path>
    <path id="STROKE_bcc195f2-2327-4417-a4cd-6bf4a3a0ffb9" opacity="1.000" fill="none" stroke="#000000" stroke-width="1.600" stroke-opacity="1.000" stroke-linecap="round" stroke-linejoin="round" d="M -146.116 1025.606 Q -146.458 1026.961 -148.467 1039.838 Q -150.475 1052.715 -150.404 1061.090 Q -150.333 1069.465 -148.533 1077.182 Q -146.732 1084.899 -137.390 1099.542 "></path>
    <path id="STROKE_2486aa19-a156-42d8-a221-0328465ca2b2" opacity="1.000" fill="none" stroke="#000000" stroke-width="1.600" stroke-opacity="1.000" stroke-linecap="round" stroke-linejoin="round" d="M -109.040 1039.127 Q -108.063 1040.416 -105.240 1049.686 Q -102.417 1058.955 -95.081 1070.873 "></path>
    <path id="STROKE_e02fb3f8-dda5-4807-84ef-baebd9f36385" opacity="1.000" fill="none" stroke="#000000" stroke-width="1.600" stroke-opacity="1.000" stroke-linecap="round" stroke-linejoin="round" d="M 92.845 992.030 L 93.376 992.808 Q 94.310 994.266 99.937 1010.511 Q 105.563 1026.757 109.755 1052.434 "></path>
    <path id="STROKE_56cbb8ba-dd31-40de-b274-287c93ea6d34" opacity="1.000" fill="none" stroke="#000000" stroke-width="1.600" stroke-opacity="1.000" stroke-linecap="round" stroke-linejoin="round" d="M 129.844 979.107 Q 133.817 988.434 138.463 1000.873 Q 143.108 1013.313 150.369 1042.285 Q 150.638 1042.800 151.829 1042.410 "></path>
    <path id="STROKE_58874e85-ca79-4dad-a4b7-9304711d530f" opacity="1.000" fill="none" stroke="#000000" stroke-width="1.600" stroke-opacity="1.000" stroke-linecap="round" stroke-linejoin="round" d="M 172.806 957.560 Q 173.785 959.127 179.266 975.977 Q 184.746 992.826 189.707 1005.417 Q 190.458 1005.574 193.313 1007.297 "></path>
    <path id="STROKE_f81f0031-3dcd-448d-9d3b-6eeec3aec73b" opacity="1.000" fill="none" stroke="#000000" stroke-width="1.600" stroke-opacity="1.000" stroke-linecap="round" stroke-linejoin="round" d="M 202.427 921.558 L 202.637 922.081 Q 205.498 925.487 218.656 960.058 L 220.412 965.184 "></path>
    <path id="STROKE_168b5ba7-d0ad-4024-8364-6ce3b5633ca6" opacity="1.000" fill="none" stroke="#000000" stroke-width="1.600" stroke-opacity="1.000" stroke-linecap="round" stroke-linejoin="round" d="M -308.292 914.691 L -308.249 913.170 L -309.102 911.385 Q -310.080 907.958 -310.355 906.231 Q -310.631 904.505 -310.751 903.010 Q -310.871 901.515 -311.057 899.443 Q -311.242 897.371 -310.260 891.106 Q -309.278 884.841 -307.299 879.894 Q -305.320 874.948 -301.872 871.326 Q -298.425 867.704 -293.162 865.088 Q -287.899 862.471 -279.195 862.013 Q -270.491 861.555 -255.731 862.496 "></path>
    <path id="STROKE_d1170def-971a-4b54-a672-28e46b606884" opacity="1.000" fill="none" stroke="#000000" stroke-width="1.600" stroke-opacity="1.000" stroke-linecap="round" stroke-linejoin="round" d="M -279.216 937.676 Q -279.155 937.427 -281.337 937.101 Q -281.860 936.737 -283.048 928.892 Q -284.236 921.047 -282.719 912.811 Q -281.202 904.576 -278.174 898.874 Q -275.145 893.172 -272.390 889.939 Q -269.636 886.705 -265.691 884.934 Q -261.745 883.162 -258.307 882.754 Q -254.869 882.347 -251.900 882.958 Q -248.931 883.570 -241.575 886.446 "></path>
    <path id="STROKE_7141a931-ce99-47a4-b90b-362d3aa61512" opacity="1.000" fill="none" stroke="#000000" stroke-width="1.600" stroke-opacity="1.000" stroke-linecap="round" stroke-linejoin="round" d="M -215.687 900.097 Q -216.655 900.784 -222.995 904.599 Q -229.334 908.414 -233.899 912.839 Q -238.465 917.265 -240.784 920.800 Q -243.103 924.335 -245.207 929.983 Q -247.310 935.631 -247.244 941.767 Q -247.178 947.904 -245.930 952.863 Q -244.681 957.823 -241.298 963.937 Q -237.914 970.052 -231.080 975.297 L -229.866 975.432 L -225.278 976.681 "></path>
    <path id="STROKE_3b276d28-5b7a-412f-9a79-0eec20f738ea" opacity="1.000" fill="none" stroke="#000000" stroke-width="1.600" stroke-opacity="1.000" stroke-linecap="round" stroke-linejoin="round" d="M -170.195 930.598 L -171.280 931.017 Q -172.835 932.069 -173.312 932.241 Q -173.789 932.413 -176.075 934.033 Q -178.362 935.653 -182.267 939.542 Q -186.172 943.431 -189.436 948.427 Q -192.700 953.423 -194.534 957.187 Q -196.367 960.951 -196.149 974.512 Q -195.930 988.073 -193.011 997.524 Q -190.093 1006.976 -187.730 1010.535 Q -185.368 1014.095 -183.323 1015.708 Q -181.278 1017.321 -179.425 1017.163 Q -177.573 1017.004 -176.266 1016.377 Q -174.960 1015.750 -171.336 1014.670 "></path>
    <path id="STROKE_353c7069-b366-489f-bfee-bc825e9f61e2" opacity="1.000" fill="none" stroke="#000000" stroke-width="1.600" stroke-opacity="1.000" stroke-linecap="round" stroke-linejoin="round" d="M -120.535 932.975 Q -122.927 937.165 -126.728 943.215 Q -130.530 949.266 -134.007 958.406 Q -137.484 967.545 -138.600 976.469 Q -139.715 985.394 -138.057 995.912 Q -136.399 1006.429 -125.289 1022.081 Q -125.284 1022.139 -125.778 1026.525 "></path>
    <path id="STROKE_57003dcb-9495-4840-a372-927aa320c644" opacity="1.000" fill="none" stroke="#000000" stroke-width="1.600" stroke-opacity="1.000" stroke-linecap="round" stroke-linejoin="round" d="M -63.767 938.088 Q -62.859 939.486 -62.569 939.878 Q -61.577 943.020 -56.118 958.977 Q -50.660 974.933 -48.260 985.140 Q -45.860 995.347 -45.362 1000.040 Q -44.865 1004.733 -45.036 1007.437 Q -45.206 1010.140 -45.249 1010.425 Q -45.292 1010.710 -44.877 1014.263 "></path>
    <path id="STROKE_76c64c16-e309-4531-b4e3-db9ff9efafa7" opacity="1.000" fill="none" stroke="#000000" stroke-width="1.600" stroke-opacity="1.000" stroke-linecap="round" stroke-linejoin="round" d="M 13.698 938.867 L 15.068 942.240 Q 15.535 943.789 18.757 953.632 Q 21.979 963.474 22.869 970.390 Q 23.759 977.306 23.600 981.093 Q 23.441 984.879 22.584 987.538 Q 21.727 990.196 21.784 990.537 Q 21.842 990.878 21.817 992.630 "></path>
    <path id="STROKE_b6c2996c-1f3b-4473-b1dc-8aa55a4afde4" opacity="1.000" fill="none" stroke="#000000" stroke-width="1.600" stroke-opacity="1.000" stroke-linecap="round" stroke-linejoin="round" d="M 70.028 924.147 Q 71.684 926.895 73.219 928.561 Q 74.753 930.226 77.999 936.523 Q 81.245 942.821 83.118 947.383 Q 84.992 951.945 87.297 961.594 Q 89.602 971.242 89.712 979.022 Q 89.655 979.584 90.505 982.360 "></path>
    <path id="STROKE_3d8aab7c-5716-4e2c-865b-642564719ad6" opacity="1.000" fill="none" stroke="#000000" stroke-width="1.600" stroke-opacity="1.000" stroke-linecap="round" stroke-linejoin="round" d="M 126.343 865.016 Q 126.693 865.441 129.645 871.682 Q 132.597 877.922 138.398 891.525 Q 144.200 905.128 146.870 912.401 Q 149.540 919.673 152.057 926.778 Q 152.011 926.720 152.238 925.281 "></path>
    <path id="STROKE_e8776f35-838d-4af1-b830-b9549758efb5" opacity="1.000" fill="none" stroke="#000000" stroke-width="1.600" stroke-opacity="1.000" stroke-linecap="round" stroke-linejoin="round" d="M 164.641 868.540 Q 164.950 869.772 168.743 878.362 Q 172.537 886.951 175.375 896.030 Q 178.214 905.109 178.874 909.509 Q 178.850 910.517 178.233 908.252 "></path>
    <path id="STROKE_918f97bd-c3e3-467b-bc79-1517992a9e9f" opacity="1.000" fill="none" stroke="#000000" stroke-width="1.600" stroke-opacity="1.000" stroke-linecap="round" stroke-linejoin="round" d="M -210.326 821.125 Q -211.502 821.675 -214.715 823.942 Q -217.927 826.209 -220.680 829.903 Q -223.432 833.597 -225.240 837.087 Q -227.048 840.577 -227.857 842.976 Q -228.666 845.375 -229.205 851.278 Q -229.744 857.182 -228.052 864.415 Q -226.360 871.648 -224.588 875.696 Q -222.816 879.745 -218.371 883.424 L -216.999 887.549 "></path>
    <path id="STROKE_24512d3c-e8b9-4b3e-a059-d5bc38bb4a55" opacity="1.000" fill="none" stroke="#000000" stroke-width="1.600" stroke-opacity="1.000" stroke-linecap="round" stroke-linejoin="round" d="M -173.789 843.288 Q -172.668 847.938 -171.643 855.509 Q -170.618 863.081 -169.175 868.924 Q -167.732 874.768 -165.911 879.472 Q -164.089 884.175 -161.604 888.206 L -159.049 894.192 "></path>
    <path id="STROKE_5ea6305d-efe9-44a7-8a6e-143ee761a600" opacity="1.000" fill="none" stroke="#000000" stroke-width="1.600" stroke-opacity="1.000" stroke-linecap="round" stroke-linejoin="round" d="M -120.604 855.340 L -120.285 856.924 Q -119.675 857.880 -113.758 885.367 "></path>
    <path id="STROKE_0320ecc8-3114-4bca-9f72-a325ada8080b" opacity="1.000" fill="none" stroke="#000000" stroke-width="1.600" stroke-opacity="1.000" stroke-linecap="round" stroke-linejoin="round" d="M -2.239 842.701 L -1.089 844.156 Q 0.462 845.394 11.579 866.141 "></path>
    <path id="STROKE_e35bd0d5-d395-4be2-ab60-fb1778f17943" opacity="1.000" fill="none" stroke="#000000" stroke-width="1.600" stroke-opacity="1.000" stroke-linecap="round" stroke-linejoin="round" d="M 80.944 807.733 Q 83.002 809.507 90.704 817.566 Q 98.406 825.625 111.637 848.403 Q 111.638 848.831 111.094 846.878 Q 110.549 844.924 103.896 836.969 "></path>
    <path id="STROKE_3b71bc8c-685b-45d6-a6e5-a366c0566483" opacity="1.000" fill="none" stroke="#000000" stroke-width="1.600" stroke-opacity="1.000" stroke-linecap="round" stroke-linejoin="round" d="M 118.806 790.236 L 120.830 791.455 Q 126.453 797.543 131.053 803.577 Q 135.654 809.610 141.663 818.862 L 142.261 821.169 "></path>
    <path id="STROKE_fe45633b-4178-4d92-bb4b-deb69e63f4c6" opacity="1.000" fill="none" stroke="#000000" stroke-width="1.600" stroke-opacity="1.000" stroke-linecap="round" stroke-linejoin="round" d="M -179.931 757.665 Q -180.261 758.322 -186.000 766.066 Q -191.740 773.810 -195.840 780.230 Q -199.941 786.650 -204.651 797.753 "></path>
    <path id="STROKE_9a6aff1a-4972-4dff-98e4-a4f0c673331b" opacity="1.000" fill="none" stroke="#000000" stroke-width="1.600" stroke-opacity="1.000" stroke-linecap="round" stroke-linejoin="round" d="M -152.801 755.387 Q -153.492 757.388 -156.861 765.727 Q -160.231 774.066 -161.878 780.828 Q -163.525 787.590 -163.045 795.784 Q -162.565 803.977 -160.971 808.507 Q -159.378 813.037 -157.260 813.993 L -153.683 813.695 "></path>
    <path id="STROKE_f32016d1-1dad-4eec-8094-138dbe66d0e0" opacity="1.000" fill="none" stroke="#000000" stroke-width="1.600" stroke-opacity="1.000" stroke-linecap="round" stroke-linejoin="round" d="M -116.628 784.669 Q -116.330 785.184 -114.275 793.604 Q -112.221 802.024 -111.240 805.571 Q -110.259 809.119 -109.479 811.220 Q -108.698 813.321 -107.795 814.676 Q -106.893 816.032 -103.361 820.312 "></path>
    <path id="STROKE_62fbb013-a579-4ecb-b548-9732d8b56d91" opacity="1.000" fill="none" stroke="#000000" stroke-width="1.600" stroke-opacity="1.000" stroke-linecap="round" stroke-linejoin="round" d="M -123.706 675.820 L -124.390 676.281 L -127.107 678.783 Q -128.780 679.838 -136.434 690.433 Q -144.087 701.028 -147.160 710.210 Q -150.232 719.391 -150.828 724.690 Q -151.423 729.988 -150.112 737.232 Q -148.801 744.476 -146.016 754.055 "></path>
    <path id="STROKE_51767dea-c51f-4098-a0fb-dc010ee39e22" opacity="1.000" fill="none" stroke="#000000" stroke-width="1.600" stroke-opacity="1.000" stroke-linecap="round" stroke-linejoin="round" d="M -106.314 695.204 Q -105.982 696.724 -107.102 707.350 Q -108.221 717.976 -107.485 727.776 Q -106.748 737.577 -105.927 740.060 Q -105.106 742.543 -104.115 744.309 Q -103.124 746.075 -102.291 746.888 Q -101.459 747.701 -99.224 752.184 "></path>
    <path id="STROKE_17235372-1afa-4c25-bf51-08b47959d2ee" opacity="1.000" fill="none" stroke="#000000" stroke-width="1.600" stroke-opacity="1.000" stroke-linecap="round" stroke-linejoin="round" d="M -24.260 692.270 Q -23.255 693.219 -18.344 700.027 Q -13.432 706.835 -10.557 712.138 Q -7.681 717.441 -4.857 721.339 L -4.785 722.130 Q -5.167 722.578 -5.965 724.049 Q -6.135 723.943 -6.576 725.216 "></path>
    <path id="STROKE_c9553e30-436b-4cbe-916f-c8053b2a3516" opacity="1.000" fill="none" stroke="#000000" stroke-width="1.600" stroke-opacity="1.000" stroke-linecap="round" stroke-linejoin="round" d="M 12.719 685.280 Q 17.683 686.405 29.806 699.742 L 32.826 703.826 "></path>
    <path id="STROKE_00dd7179-0357-4e07-b404-598837706f1d" opacity="1.000" fill="none" stroke="#000000" stroke-width="1.600" stroke-opacity="1.000" stroke-linecap="round" stroke-linejoin="round" d="M -20.488 777.376 Q -18.285 778.883 -14.636 783.585 Q -10.986 788.287 -5.807 792.566 L -4.726 792.939 Q -3.351 792.583 0.993 790.842 "></path>
    <path id="STROKE_bc702a04-e473-4cc5-9463-5886225d1438" opacity="1.000" fill="none" stroke="#000000" stroke-width="1.600" stroke-opacity="1.000" stroke-linecap="round" stroke-linejoin="round" d="M 26.296 777.709 Q 28.114 779.590 29.660 781.072 Q 31.205 782.554 37.963 786.225 "></path>
    <path id="STROKE_dfb523f2-38ff-4de1-bd7a-3210efaa6c5d" opacity="1.000" fill="none" stroke="#000000" stroke-width="1.600" stroke-opacity="1.000" stroke-linecap="round" stroke-linejoin="round" d="M 91.009 740.982 Q 92.534 742.020 99.243 751.184 Q 105.951 760.348 109.131 765.418 Q 112.310 770.488 113.820 773.448 Q 115.329 776.408 118.109 782.934 Q 116.311 782.331 115.518 781.945 Q 114.725 781.558 110.538 779.529 "></path>
    <path id="STROKE_54dbd4d1-6306-47e3-811e-6fa732e441ce" opacity="1.000" fill="none" stroke="#000000" stroke-width="1.600" stroke-opacity="1.000" stroke-linecap="round" stroke-linejoin="round" d="M 96.533 712.354 Q 98.150 713.324 109.133 722.067 Q 109.615 723.205 110.384 726.302 "></path>
    <path id="STROKE_b21f1977-b1ca-408a-b71d-33e82a3e06ff" opacity="1.000" fill="none" stroke="#000000" stroke-width="4.815" stroke-opacity="1.000" stroke-linecap="round" stroke-linejoin="round" d="M -351.099 891.827 L -350.058 890.076 Q -349.780 889.839 -341.806 880.401 Q -333.831 870.964 -331.848 868.393 Q -329.865 865.823 -328.227 863.726 Q -326.590 861.630 -324.663 859.227 Q -322.735 856.824 -315.406 844.297 Q -308.076 831.770 -304.406 823.028 Q -300.735 814.285 -299.458 810.229 Q -298.181 806.173 -296.260 798.000 Q -294.339 789.827 -293.589 785.545 Q -292.838 781.262 -292.554 778.498 Q -292.270 775.735 -291.937 764.026 Q -291.603 752.317 -291.950 744.382 Q -292.297 736.448 -292.996 732.518 Q -293.695 728.588 -294.598 723.947 Q -295.501 719.305 -298.069 710.195 Q -300.638 701.085 -300.889 700.131 Q -301.141 699.177 -303.378 693.468 Q -305.616 687.759 -306.305 685.184 "></path>
    <path id="STROKE_91438ee9-6fff-44ca-800b-81a8c10cf798" opacity="1.000" fill="none" stroke="#000000" stroke-width="4.815" stroke-opacity="1.000" stroke-linecap="round" stroke-linejoin="round" d="M -306.117 679.929 Q -305.605 680.669 -303.741 683.705 Q -301.877 686.741 -298.724 692.980 Q -295.571 699.220 -290.520 707.862 Q -285.469 716.504 -283.276 721.104 Q -281.084 725.704 -280.160 728.077 Q -279.236 730.450 -278.378 732.442 Q -277.519 734.433 -276.461 738.667 Q -275.402 742.901 -274.812 748.246 Q -274.222 753.591 -274.214 755.544 Q -274.205 757.498 -274.478 761.061 Q -274.751 764.624 -275.234 767.341 Q -275.718 770.059 -276.335 773.367 Q -276.952 776.676 -277.839 779.545 Q -278.726 782.414 -279.439 784.241 Q -280.152 786.067 -286.017 798.995 Q -286.641 799.765 -290.892 807.540 Q -293.017 810.675 -296.082 815.910 "></path>
    <path id="STROKE_cf5eff62-6293-49c8-b107-4215b84d2cc9" opacity="1.000" fill="none" stroke="#000000" stroke-width="4.815" stroke-opacity="1.000" stroke-linecap="round" stroke-linejoin="round" d="M -496.298 773.512 L -492.994 772.932 L -489.345 772.520 "></path>
  </g>
</svg>